<svg xmlns="http://www.w3.org/2000/svg" width="96.55" height="96.55" viewBox="0 0 96.55 96.55"><path d="M72.496 48.53c-.063-.16-.15-.308-.227-.465-.885.457-1.72.926-2.587 1.324-.844.388-1.71.736-2.59 1.042-.893.31-1.813.55-2.715.815.007.082.002.133.016.18.037.12.077.24.124.356 1.26 3.18 1.816 6.492 1.857 9.896.034 2.837-.333 5.63-1.166 8.35-1.254 4.087-3.275 7.75-6.254 10.83-4.353 4.495-9.706 6.915-15.917 7.48-.575.052-1.153.045-1.778.067.028-.14.024-.172.038-.182.322-.242.647-.48.968-.723 6.493-4.93 11.606-11.01 15.22-18.322 3.005-6.078 4.532-12.525 4.684-19.302.073-3.312-.217-6.597-.79-9.854-.65-3.705-1.67-7.313-2.985-10.837-.04-.11-.165-.374-.252-.53-.08-.584-.104-.76-.122-.87 0-.1-.006-.283-.01-.32-.324-3.062-.88-6.078-1.72-9.04-1.143-4.02-2.764-7.83-5.035-11.347-1.565-2.424-3.37-4.647-5.57-6.53-.207-.177-.426-.343-.686-.55-.008.137-.04.22-.01.27.154.29.323.57.487.853 3.823 6.584 7.18 13.4 10.05 20.452.788 1.934 1.507 3.896 2.26 5.845l.22.408c.02.115.047.316.122.867.04 1.028.096 2.084.115 2.996.11 5.347-.032 10.683-.578 16.006-.252 2.458-.565 4.906-.98 7.337-.522 3.056-1.19 6.08-2.063 9.056-1.073 3.658-2.42 7.207-4.24 10.566-1.62 2.986-3.562 5.734-6.01 8.104-2.25 2.18-4.808 3.896-7.705 5.1-.31.13-.602.166-.946.1-3.955-.773-7.515-2.402-10.682-4.89-2.737-2.147-4.86-4.81-6.515-7.858-1.768-3.252-2.826-6.725-3.192-10.402-.215-2.164-.168-4.326.09-6.488.32-2.646.99-5.19 2.072-7.625 1.613-3.627 3.973-6.705 6.918-9.346 2.273-2.037 4.813-3.644 7.676-4.727 1.847-.698 3.752-1.14 5.713-1.37 1.735-.205 3.474-.214 5.208-.078 2.218.174 4.38.654 6.46 1.463.18.07.37.115.636.197.184-1.45.47-2.825.897-4.167.43-1.342 1.006-2.626 1.603-3.903-.326-.257-.68-.314-1.01-.42-2.82-.907-5.713-1.4-8.67-1.568-3.164-.18-6.295.033-9.4.65-3.717.74-7.188 2.11-10.403 4.122-3.06 1.915-5.703 4.306-8.038 7.05-5.18 6.084-7.944 13.132-8.37 21.1-.122 2.29-.045 4.58.245 6.864.408 3.22 1.223 6.326 2.512 9.305 2.083 4.813 5.122 8.948 8.973 12.49 2.85 2.62 6.096 4.62 9.713 6 3.37 1.29 6.875 1.96 10.467 2.137 3.333.163 6.646-.024 9.924-.714 4.427-.93 8.477-2.698 12.117-5.393 2.84-2.103 5.25-4.63 7.352-7.457 4.177-5.613 6.44-11.928 6.836-18.906.162-2.852.027-5.693-.44-8.515-.405-2.395-1.018-4.73-1.922-6.982z"/><path d="M88.79 10.815c-.73-2.712-1.76-5.303-3.167-7.737-.2-.346-.424-.68-.68-1.09-.194.352-.354.63-.503.913-.973 1.84-2.187 3.504-3.685 4.952-2.272 2.193-4.892 3.782-7.98 4.54-.27.065-.537.138-.803.216-2.277.667-4.48 1.516-6.54 2.71-1.412.82-2.624 1.86-3.624 3.156-1.86 2.41-2.76 5.127-2.625 8.167.11 2.484.82 4.805 2.02 6.978.06.106.144.197.265.36 9.77-2.396 17.11-7.985 22.184-16.826-.02.298-.01.442-.04.578-.17.766-.438 1.497-.783 2.2-.763 1.552-1.788 2.92-2.932 4.204-1.984 2.23-4.24 4.164-6.61 5.97-2.868 2.185-5.875 4.165-8.994 5.974-.23.133-.502.22-.675.51.422.378.823.758 1.246 1.113 1.597 1.34 3.34 2.425 5.33 3.082 1.878.618 3.788.787 5.74.446 2.37-.412 4.433-1.46 6.243-3.023 1.755-1.514 3.137-3.336 4.302-5.327.675-1.152 1.303-2.333 1.737-3.6.904-2.637 1.433-5.354 1.603-8.13.216-3.496-.12-6.946-1.033-10.333z"/></svg>